<svg width="478" height="617" viewBox="0 0 478 617" xmlns="http://www.w3.org/2000/svg" xmlns:xlink="http://www.w3.org/1999/xlink"><title>ING_Lion_Reversed</title><defs><path id="a" d="M0 0h523v674H0z"/><path id="c" d="M.327.01v242.663h233.52V.01z"/><path id="e" d="M625.485 360.673H.3V.35h625.185v360.323z"/></defs><g transform="translate(-45 -57)" fill="none" fill-rule="evenodd"><mask id="b" fill="#fff"><use xlink:href="#a"/></mask><g mask="url(#b)"><path d="M206.332 97.9c-4.778 4.565-7.322 10.03-10.994 15.543.937.586 7.747 4.282 7.79 4.31 4.86 3 7.246 3.44 7.84 2.994 1.896-1.465 11.81-13.74 13.34-16.584 10.875-5.676 29.942-18.103 37.23-23.714 2.066 1.985 20.642 13.772 29.315 19.692 6.472 4.4 13.363 6.067 18.854 9.567 3.95-5.796 6.707-12.2 9.703-18.473.223-.445 1.095-2.925 1.427-3.56 4.14 3.42 11.31 2.8 15.08 5.714.593.463.658.446.26 2.156-1.318 5.34-.146 11.4 1.44 17.132.32 1.13 1.36.852 2.21.82 1.64-.11 5.47-1.83 8.886-2.9 9.61-2.945 19.312-4.508 23.954-6.766 5.224-2.577 9.533-6.615 14.278-10.088 3.34-2.47 7.055-5.356 9.937-7.456 1.225-.852 1.33-1.297 3.54-1.416 2.822.412 10.907 3.234 14.333 4.39 4.876 1.622 9.8 2.724 11.195 3.18 5.437 1.823 13.015 4.57 14.448 4.086 3.023-.982 10.824-6.86 16.087-10.826-15.553-9.388-30.867-19.183-48.26-25.234-.797-.293-1.227.13-2.148 1.248-1.427 1.297-11.538 10.148-13.483 11.966-1.384 1.275-3.426 1.53-5.37 1.568-.993.038-.846-5.166-1.047-7.57-.224-3.17 1.874-7.825-.736-9.03-2.336-1.03-11.733-1.688-12.36-.754-3.012 4.265-3.317 9.437-4.363 14.956-.637 3.25-.926 10.945-8.907 14.2-2.86 1.613-5.317 1.407-6.434 1.645.147-2.018-.926-12.345-.926-14.375 0-.846-1.716-10.51-2.522-12.253-1.504-2.975-6.565 1.404-9.888 3.125-2.517 1.302-12.203 7.065-12.976 7.125-.61.054-4.544-2.095-6.314-2.806-5.84-2.55-7.926-3.386-14.033-5.562-2.784 9.08-5.895 19.487-6.62 21.533-.114.45-.942.45-1.454-.016-.152-.126-16.174-15.918-23.534-25.263-15.76 3.522-30.878 9.307-46.595 13.117-7.066 6.8-14.812 15.91-22.183 24.577M477.267 155.718c1.354.58 8.81 3.314 10.624 3.282 1.043-.027 1.97-.087 2.037-.864.448-4.635-1.272-9.09-2.21-13.52-2.53-11.768-7.295-23.135-9.468-35.752-.312-1.744-.088-5.015 0-6.77-6.678-3.83-14.108-5.793-21.134-8.884-.693-.294-2.036-.43-2.113.635-.104 5.18 2.43 10.243 4.286 14.04 2.794 5.793 6.654 15.65 7.806 18.274.47 1.042 1.632 6.775 1.31 9.84-.46 4.955 2.227 9.73 2.943 14.828.468 3.39 1.942 3.108 5.917 4.89M480.278 168.99c-2.365 2.316-7.6 6.386-5.968 8.1 2.067 2.178 5.39 3.136 7.982 4.773 4.05 2.522 7.537 5.55 11.38 8.714 7.743 6.336 10.358 14.744 18.723 20.518 2.865 1.987 4.783 3.235 6.468 4.437.436.323 7.18 4.555 8.137 5.468.032-6.214-2.636-12.46-3.79-18.346-.696-3.52-1.392-7.93-2.747-10.49-1.26-2.01-2.38-3.213-5.06-5.485-5.623-4.817-10.24-9.934-11.076-10.775-4.794-4.638-8.976-9.75-13.313-14.905-4.613 1.047-7.558 4.855-10.736 7.99M501.642 215.154c-1.542-.788-6.332-2.27-13.397-3.97-1.993-.482-5.686-2.643-7.244-2.096-1.368.463-1.09 1.987-.586 2.723 2.145 3.37 3.226 6.093 4.203 8.543.77 1.977 3.753 10.52 5.366 13.315 3.35.395 8.39 1.698 11.04 2.46 1.933.558 12.653 4.99 17.182 7.575 2.166 1.262 12.76 10.503 13.972 11.292 5.79 3.874 9.938 7.075 13.83 5.666 2.3-.834.03-4.693-1.04-6.417-5.98-9.867-10.786-26.6-13.246-27.676-3.893-1.683-7.01.804-13.972-3.076-4.154-2.296-14.01-7.216-16.106-8.336M460.58 230.703c-2.374 4.397-7.226 8.617-5.018 13.074 2.98 5.925 2.923 12.81 7.042 17.572 4.366 5.094 12.694 3.833 18.043 8.488.56.456 1.375-.145 1.353-.638-.677-10.89-5.41-20.656-8.787-31-1.7-5.24-5.478-9.68-8.854-14.2-1.8 1.947-2.566 4.397-3.78 6.703M198.523 203.45c-8.666 1.79-23.756 7.135-23.962 10.306-.443 4.928-.654 16.96-.52 18.31.488 4.528 1.787 9.712 3.64 13.934 3.993-4.567 6.42-6.39 8.7-8.42 1.367-1.125 19.95-14.88 21.62-16.082 3.458-2.553 6.3-2.28 6.53-5.345.56-8.938 3.563-9.272 2.047-12.187-1.787-3.593-14.03-1.318-18.054-.517M183.572 201.924c6.11-5.32 9.75-7.908 17.9-15.946 2.07-2.015 2.902-1.072 8.07-4.057 2.2-1.277 3.55-3.113 3.453-4.445-.22-3.418-1.496-6.473-3.533-10.752-1.215-2.49-4.99-10.724-5.17-12.977-.21-2.075.18-8.742.41-10.037.844-4.4 1.762-8.53 2.627-13.27.096-1.024.21-2.075.21-3.12-1-.228-1.994-.32-2.95-.32-1.08 0-8.6 1.7-13.445 2.86-.918.222-2.668.71-2.836 1.993-.552 4.772-1.12 9.56-1.12 14.196 0 6.472 2.33 12.69 3.674 19.514.357 1.62 1.064 4.014-.205 4.674-.503.266-2.76 1.55-3.237 1.83-4.888 2.883-8.907 6.68-13.423 9.897 1.945 8.6.308 17.294 1.556 26.177.07.574.864 1.175 1.33.666 3.034-3.374 4.07-4.615 6.686-6.884M205.56 241.97c-4.778 1.947-7.46 3.284-11.615 5.096-4.878 2.518-9.526 3.893-12.308 5.704-6.817 4.378-10.652 8.2-18.637 13.15.278 8.67.634 10.163 1.116 14.972.644 4.847 2.05 14.838 1.975 16.132.132.95.29 1.952.452 2.976 3.2-5.435 11.658-15.064 17.337-21.146 3.49-3.73 9.064-10.955 24.966-19.366 1.73-.922 1.708-.922 1.865-2 .797-5.51 1.185-11.144 1.29-16.79.03-1.843-4.4.454-6.44 1.273M509.522 282.287c-1.345-.745-3.85-1.117-5.37-1.55-3.82-1.095-11.186-2.08-11.186-1.62-.143 2.896-.757 6.14-.963 9.316-.048.82.582 5.483 1.334 7.06.423.91 7.994 17.05 9.207 19.23 1.715 3.123 4.246 5.484 6.893 6.207 3.817 1.035 8.296 3.988 11.563 2.788-.837-4.053-2.95-8.04-3.71-12.05-1.738-8.972-5.243-13.118-6.36-18.798-.28-1.5.35-3.03.424-4.475.195-3.736-1.14-5.752-1.832-6.108M169.43 306.57c-1.416.402-1.575 4.07-1.34 8.77.124 2.157 1.796 20.126 2.732 25.454.97 5.318 2.106 9.53 3.356 13.973 1.09 3.98 2.448 7.33 3.344 9.868.485 1.31 2.853-1.152 4.68-3.534 2.807-3.728 7.424-10.737 10.106-15.102.84-1.387.828-1.13.428-2.773-2.442-9.895-5.25-21.014-5.444-23.928-.365-5.47 2.842-17.246 3.658-19.42.61-1.577 1.06-5.258.126-4.845-6.746 3.023-13.623 9.303-21.646 11.537M196.804 357.3c-1.29.968-8.886 6.78-11.443 8.89-2.487 2.07-5.347 3.67-8.36 5.003 1.003 3.167 2.325 5.292 3.165 8.475.698 2.59.483 4.994 1.506 8.907.742 2.768.81 6.903 1.44 9.776.262 1.163 2.425.516 2.745-.027 1.375-2.363.77-3.897 1.99-6.056 6.445-10.263 16.286-19.358 18.155-21.074-2.063-4.882-3.485-9.238-4.173-14.957-.32-2.452-2.54-.808-5.023 1.063M234.206 356.814c-1.94-.73-5.225-3.175-5.556-.8-.625 4.03-.703 10.37-.625 12.947.045 1.346.276 8.988.506 12.436.232 3.207 1.812 5.598 2.375 6.75.81 1.592 3.656 3.977 6.114 5.327 4.987 2.63 10.6 4.558 15.95 7.317.63.33 2.266.352 2-.544-2.04-7.53-6.483-14.025-8.536-21.513-1.45-5.337.888-11.304-1.913-15.813-1.894-3.096-6.455-4.595-10.314-6.106M213.885 395.003c-.648-1.483-2.21-1.07-4.095-.36-3.497 1.284-16.155 6.477-20.04 7.756-.853.293-7.26 2.17-8.75 2.548 1.534 2.852 2.72 5.147 3.78 7.362 1.573 2.193 4.044 8.073 4.924 11.084.496 4.944 2.786 7.306 3.79 9.606 3.47-2.712 6.15-4.752 9.178-7.475 4.738-4.905 13.363-15.064 17.328-18.238-2.696-3.512-4.704-8.885-6.115-12.284M275.086 371.22c-2.227-1.28-5.093-4.15-6.64-2.92-1.693 1.33-1.92 3.046-2.134 4.915-.116 1.15 0 2.534.066 3.76.077 2.59-.26 5.095-1.378 7.406 3.334 3.952 6.062 7.94 8.096 12.38 2.43 5.32 4.057 11.134 7.115 16.24 1.28-2.48 1.798-5.422 2.592-8.196.606-2.02 1.625-3.574 2.088-5.814.596-2.735 1.49-4.822.937-7.743-.033-.175-1.063-2-1.063-2.202-.634-3.427.055-5.165-1.097-8.288-1.637-4.245-4.35-7.116-8.58-9.536M300.556 349.91c.81 1.18 2.233 4.45 3.65 3.436 4.382-3.123 6.605-7.05 11.356-9.825 1.026-.58 1.386-.1 1.31.55-.284 2.083-.284 3.267-.284 5.867-.478 5.867-.93 9.05.317 13.81 1.186 4.473 5.074 2.93 11.597 4.922 2.362.75 3.42-1.328 3.86-2.66 1.026-2.95 3.786-9.857 4.07-10.364.333-.82.42-1.3 1.407-1.956 1.234 0 1.98 1.654 2.49 2.437 2.803 4.424 1.283 11.347 5.917 12.685 1.208.343 2.76.105 4.36.137.998.036 4.982-.52 5.73-.83 1.695-.698 2.995-1.423 3.73-3.072 2.003-4.476 1.98-10.354 1.47-15.745.48-.2.7-.333 1.14-.333 3.87 2.5 8.488 6.892 13.685 12.743 1.955-3.13 5.337-9.725 5.998-11.49 2.416-6.332 3.586-13.15 3.64-19.91-24.6-13.473-55.297-12.807-81.783-3.415-1.132.412-8.735 3.467-10.217 4.14.956 7.076 2.89 13.18 6.556 18.873M324.49 430.286c.03-4.706-.114-5.94-.628-9.566-.68-5.11.657-10.185-1.805-14.61-1.24-2.195-4.283-3.96-7.464-3.93-2.878.03-6.813-1.08-9.47-1.72-1.592-.407-2.295-2.178-3.334-1.136-.692.67-.458 2.825-.378 3.91.234 6.116-1.062 6.506-1.365 9.358-.4 4.196 1.8 11.397 4.69 15.835 1.5 2.22 3.934 3.302 5.973 3.795.257.044 4.865 1.926 6.66 3.33 4.23 2.627 3.59.938 7.51 4.448.387-2.65-.27-6.324-.39-9.714M341.873 400.512c-2.184.79-5.8.648-5.855 2.85-.175 4.562.984 9.246 1.437 13.748.345 3.69.786 6.786 1.193 10.536.396 4.057-2.477 7.423-.81 11.354 3.14-3.058 10.105-5.375 12.39-8.69 3.536-5.19 5.39-5.283 6.398-9.51 1.477-6.512 1.8-17.153.792-25.8-5.023 2.377-9.69 3.37-15.545 5.512M383.117 388.424c-4.97 2.792-14.196 6.778-14.116 8.496.223 7.156.923 13.42 1.714 16.932-.046 5.585-.968 7.89 1.31 9.04 5.76 2.864 7.883 2.923 13.387 6.337.667.426 6.593 4.412 7.84 4.74 1 .293.808-1.695.512-2.58-2.05-6.023-4.673-12.19-5.607-18.332-1.378-8.777-.586-17.575-.586-26.465.02-1.81-2.995 1.026-4.453 1.83M404.888 380.502c-1.403-.642-3.923-2.56-4.73-.73-2.282 5.49-2.81 15.747-1.317 20.875 1.055 3.745 8.974 18.862 12.358 21.74.786.643 9.368.844 10.998.292.938-.292 3.21-.09 2.74-.917-6.447-10.128-8.197-20.234-8.693-22.276-.37-1.585-2.193-4.84-2.657-9.744-.38-3.778 1.144-4.66-.885-5.608-3.458-1.585-4.238-2.082-7.812-3.633M441.997 376.363c-1.94-1.505-3.044-1.417-7.485-2.395-2.27-.5-4.382-1.246-6.684-.862-.564.1-1.07.73-.704 1.406 3.135 5.988 8.087 11.85 7.388 19 1.51 1.983 3.022 2.16 5.356 3.06 3.274 1.27 9.818 3.455 13.18 3.428 1.413 0 .945-2.313.542-3.395-.63-1.983-1.248-4.175-2.248-5.976-1.984-3.467-8.157-13.327-9.345-14.267M465.252 361.883c-2.855 1.382-5.103 1.916-7.252 3.817 3.74 6.316 8.89 11.332 13.803 16.887 2.318 2.63 7.252 2.305 10.79 2.732 7.887.96 14.618.663 15.33.533 5.416-1.166 7.972-2.305 11.077-5.242-5.488-2.747-13.358-5.7-20.246-8.945-6.383-4.594-11.81-7.412-16.484-12.665-3.192.648-4.712 1.82-7.018 2.883M499.05 341.6c-2.36.013-4.865.227-7.05 1.446 2.396 3.622 6.522 14.577 6.942 15.254 1.862 2.996 2.05 5.665 5.666 6.257 8.19 1.292 16.31.835 24.3 3.334.78.22 2.453.142 2.022-.557-3.304-5.822-5.024-4.186-6.84-6.47-1.788-2.19-6.386-10.032-7.55-11.724-1.92-2.805-2.81-5.43-4.916-7.742-.874-.993-8.328.18-12.574.203M496.194 406.613c-.26.217-.26 1.032 0 1.315 4.324 4.847 6.313 10.807 11.48 14.948 1.008.853 2.065 1.603 6.687.744 6.22-1.162 10.847-.717 16.692-1.32.914-.11 7.315-.14 8.07-.408.644-.24 1.344-.592 1.878-1.13-.716-2.38-1.096-5.02-3.14-5.63-10.95-3.172-21.075-7.128-28.05-16.132-1.233 1.157-11.39 5.564-13.616 7.613M468.762 418.09c-4.606 3.137-9.955 3.626-13.762 7.554 1.187 3.832 3.09 7.564 6.028 10.413 2.532 2.495 3.943 5.603 10.086 8.643 9.047 4.49 8.822 3.416 12.744 7.137.673.635 1.73 1.624 2.872.92 6.22-3.904 13.537-4.275 20.43-4.714.53-.04 1.13-.775.683-1.382-3.09-4.045-6.285-7.03-10.972-9.9-7.022-2.86-11.398-6.272-14.324-12.06-1.827-3.63-3.643-7.2-5.612-10.7-3.173.405-5.514 2.293-8.172 4.09M439.334 441.41c-4.837 1.565-9.79 2.48-14.334 4.745 3.26 7.93 6.117 11.693 16.1 21.056.413.38 2.415 1.47 2.91 1.448 9.686-.2 19.37 1.216 28.99-.58-5.907-5.31-7.683-7.366-11.72-10.51-5.477-3.746-8.814-5.03-14.996-12.136-1.776-4.058-3.492-5.13-6.95-4.02M386.553 454.574c-4.314.773-8.548.326-12.553 2.22 1.895 2.718 1.71 6.65 4.005 8.75 6.327 5.935 7.475 8.08 13.033 17.51 2.11 3.524 10.598 5.135 16.167 4.928 2.772-.103 9.008-3.364 11.795-5.64-4.613-3.29-13.99-12.077-18.116-16.482-3.337-3.533-1.96-9.337-4.736-12.86-3.284.038-6.03.93-9.595 1.574M337.772 463.097c-.602.19-8.545 1.105-11 2.933.335 5.6-.443 11.126-2.795 16.3-2.495 5.57-10.61 8.723-11.972 17.214-.07.5.62.738 1.432.706 1.784-.08 6.92.96 7.778.712 3.62-1.03 6.824-4.987 8.654-6.08 4.54-2.74 8.703-4.95 13.34-7.332 3.653-1.86 3.097-4.216 3.886-7.785.03-.188 3.404-12.867 3.904-18.954.01-.51-.733-1.034-1.398-.71-2.085.916-9.977 2.447-11.83 2.997M301.98 452.19c-3.225.116-5.633.304-9.693.617-2.71 5.344-5.302 10.55-7.003 16.495-1.167 4.074-4.293 7.198-6.274 11.01-.114.272.804.988 1.247.55.82-.805 1.593-1.625 2.89-1.84 7.234-1.237 10.922-1.807 13.643-1.697 4.8-4.252 7.808-7.05 12.16-11.966 0 0 2.953-6.515 1.77-11.612-.48-2.33-5.512-1.714-8.74-1.557M262.943 432.088c-1.57.474-4.46 1.12-7.888 1.32-1.155.053-1.015 1.69-1.113 2.213-.466 2.425-2.29 14.048-3.035 19.09-.596 5.386-2.48 9.237-2.724 9.77-2.88 6.625-5.46 9.4-8.183 16.477 4.464 1.648 12.533 1.12 15.74-.044 3.127-1.147 5.07-3.964 6.96-6.786.952-1.34 4.956-11.462 6.442-15.442 1.518-4.062.7-9.89 0-11.796-1.103-2.93 1.015-8.71.093-13.52-.77-3.846-3.81-2.03-6.292-1.282" fill="#FFFFFE"/><g transform="translate(45 431)"><mask id="d" fill="#fff"><use xlink:href="#c"/></mask><path d="M165.367 1.488c-5.774.142-17.338 1.167-16.995 2.116 1.138 2.95 2.008 6.26 3.07 8.993 1.425 3.577 3.646 7.607 4.103 14.718.36 5.34.615 10.678-.5 16.328-.034.447.832 1.162 1.316.644 3.946-4.183 13.948-10.766 15.597-11.453 1.52-.6 3.848-2.12 4.588-3.637 2.03-4.205.343-7.995.843-12.767.37-3.92 1.018-12.02 1.584-15.77-3.233-1.8-9.855.708-13.605.828M29.647 242.907c1.236-.022 1.54-1.216 1.148-1.848-6.905-11.24-11.563-20.785-6.345-34.538 3.233-8.448 10.236-11.093 12.386-12.974.337-6.08-1.85-11.894-.234-17.947 2.51-9.16 13.24-7.847 22.807-6.92-.915 11.932-3.647 23.434-5.008 35.43-1.496 13.182 2.074 24.515 5.06 37.488.126.6.807 1.287 1.34 1.287h16.64c.578 0 1.323-.872 1.215-1.194-1.464-4.83-2.825-8.62-3.962-13.43-1.214-5.034-1.214-8.82-.69-14.305.592-6.266.445-12.227 1.974-18.17 2.04-.54 2.813.18 4.418 1.17 4.69 2.8 5.676 3.726 9.262 6.055.893.567 1.676-.72.86-3.867-2.052-6.457 3.613-11.594-1.65-16.55-3.068-2.848-11.53-.432-12.053-1.8-.626-1.615 1.225-6.338 3.913-12.32 2.645-5.94 3.657-7.428 7.14-13.345 1.268-.68 7.58-.316 12.875.355 1.965.267 6.884 1.925 11.265 4.22.968.508 1.37.895.794 1.78-2.378 3.79-4.952 13.31-6.546 17.815-6.852 19.31-5.856 41.408-4.577 62.47.028.518.74 1.14 1.253 1.14 5.262-.023 8.93 0 15.803 0 .3-11.873-1.507-24.22.843-35.89 3.2-15.673 8.032-16.34 9.69-16.786 3.326 0 6.357 3.47 7.174 6.446 4.212 15.603-5.502 30.687-6.427 46.23 6.17-.023 9.56 0 14.21 0 2.137 0 3.677-1.637 5.707-6.32 4.24-9.72 9.8-19.89 11.755-30.388 1.696-8.126-1.427-14.212-7.092-23.56-4.152-6.86-9.023-12.09-20.734-19.98-2.46-7.308-.79-8.61 0-15.64.615-.317 7.418-.803 10.253-.377 12.68 1.865 16.325 3.07 22.758 5.6 11.438 4.51 21.022 10.95 31.693 17.87.62.438 1.36-.048 1.415-.67.277-4.847 1.273-7.514 1.54-11.315-7.695-8.12-13.55-13.307-23.264-19.426-6.433-3.664-17.24-6.03-26.318-7.874-3.646-.753-4.783-3.125-5.338-5.154-1.083-3.817-.17-5.546.043-8.944 10.002-1.167 22.013-1.38 26.872.284 15.677 4.935 34.996 14.926 43.84 20.707.63.41 1.392.84 2.214.84 1.93-3.73.326-7.454.76-11.31-2.186-3.005-19.36-20.303-19.736-20.603-5.556-4.62-12.02-8.616-18.747-9.947-11.106-2.22-22.97-2.372-26.196-1.876-2.04-2.192.157-5.366 1.474-7.204 1.606-2.242 3.222-4.248 5.295-6.32 4.8.228 7.205.103 12.157.37 7.216.19 23.215 5.355 32.777 9.8 15.22 7.11 22.28 12.603 24.26 15.433 1.72-5.802.827-8.07 2.23-12.08-5.773-7.023-14.094-15.53-19.9-19.642-8.745-6.227-20.756-13.148-41.44-19.42-4.963-1.483-11.978-2.464-17.6-3.09-13.18 22.827-21.244 47.88-31.29 72.393-1.714 4.194-4.783 14.24-4.783 14.98-2.656-.124-12.2-4.525-12.957-5.005-3.826-2.367-23.797-7.826-34.68 9.62-.992 1.56-2.635 4.755-4.16 4.155-4.695-1.7-10.85-4.5-18.882-3.435-11.553 1.516-21.185 8.212-27.607 18.198-3.994 6.206-5.523 12.952-4.707 20.183-7.068 2.966-13 10.59-15.018 17.314-4.05 13.595 7.88 37.04 12.663 41.81l16.162.023" fill="#FFFFFE" mask="url(#d)"/></g><path d="M332.302 519.087c-3.904.088-5.352-1.062-8.262.393-.492 7.17 3.715 12.794 5.34 19.83.368 1.583 4.283 3.098 5.017 3.74 6.405 5.775 14.262 8.95 15.888 9.874.62.36.896-.636.588-1.328-.842-1.742-2.1-7.61-2.28-8.43-1.737-8.436-2.488-15.67-4.437-24.007-.308-1.434-2.026-1.218-2.846-1.008-3.273.846-5.833.868-9.008.935" fill="#FFFFFE"/><g transform="translate(216 313)"><mask id="f" fill="#fff"><use xlink:href="#e"/></mask><path d="M162.237 197.11c-3.427-.484-6.566-1.023-9.79.267 1.85 4.07 2.358 8.43 2.98 12.772 5.246 6.028 12.067 9.914 18.97 14.01 1.684.943 2.544-2.017 2.43-2.676-.937-7.145-2.746-13.806-4.44-21.02-.137-.578.087-2.13-1.172-2.287-3.002-.408-5.966-.658-8.978-1.067M218.24 360.907c1.274 0 1.383-.816 1.797-1.96 1.738-4.64.626-7.198 3.16-12.705 1.716.55 5.895 1.175 8.505 1.458 2.33.267 4.79.338 6.385-.283 4.593-1.84 7.53-6.394 11.403-9.425-5.764-4.462-13.588-4.783-20.246-7.645-.893-.43-2.015-1.247-2.108-2.177-1.863-12.075 1.395-13.447 1.318-20.26-.828-8.837-11.065-12.5-19.695-14.763-4.076-1.083-10.358-1.9-13.13-.653-3.804 1.746-6.877 3.678-10.08 6.307-1.308 1.045-1.5 1.045-2.577-.27-1.967-2.407-6.288-5.258-9.726-6.216-3.15-.892-7.393-1.992-11.32-.212-1.15.5-3.34.93-3.34.93s1.105-2.58 2.042-4.048c1.966-3.124 3.285-5.007 5.224-7.738.96-1.377 5.574-5.622 7.11-6.253 4.39-1.856 8.298-1.545 12.978-.26 8.025 2.137 13.93 3.438 15.538 3.89 1.978.598 6.222 3.455 7.235 2.623 3.918-3.276 4.877-5.088 7.693-6.253 9.034-1.948 19.57-3.63 26.168-3.51.47 0 11.877 13.474 16.187 19.367 2.054 2.857 12.45 16.88 19.363 29.82 3.035-.467 5.672-.576 9.044-1.506.164-2.694-4.467-13.44-5.263-15.81-4.62-14.11-6.46-19.148-6.047-23.62 2.446.135 2.844.467 5.95 1.473 3.034.93 7.638 2.678 12.792 5.84 2.255 1.354 4.8 2.77 5.927 5.147 2.582 5.442 3.083 11.428 4.98 17.115.593 1.86 1.307 3.862 2.712 5.353 4.02-10.263 8.745-11.35 12.82-20.292-3.018-13.723-11.213-20.52-20.42-25.417-3.193-1.676-33.17-16.67-38.318-15.814-10.874 1.07-21.26 3.215-32.34 6.284-1.22.142-2.828.245-3.406-.974-2.39-4.82 1.548-10.356 4.397-15.003 2.12-3.434 13.26-5.268 18.7-5.055 16.556.718 27.708 3.852 32.154 5.18 2.14.675 5.605 2.53 7.638 3.352 1.1.452 2.015.964 3.012 1.497.68.387 1.32-.12 1.395-.68.414-5.06-2.648-9.11-4.435-13.533-5.9-2.628-12.057-4.266-18.208-6.47-7.867-2.797-10.77-4.38-23.242-6.03-4.244-.544-5.595-.315-9.68.67-.715.217-2.96.94-4.856 1.49-.136-2.35 1.16-3.988 2.12-5.332 3.072-4.55 7.49-7.76 10.96-11.863 2.34 0 4.758.446 7.062.26 7.748-.625 15.027-.364 18.116.153 5 .86 6.32 3.02 13.866 5.622 1.465.56 3.405 1.54 4.603 1.54.535 0 .045-3.89-.304-5.257-.877-3.352.74-5.49-.588-8.57-.37-.904-2.076-2.65-6.67-4.382-6.15-2.323-10.525-3.607-18.027-7.678-3.573-1.752-14.546-4.397-21.738-1.992-9.044 3.064-10.59 3.826-15.908 4.985-7.377 11.384-11.698 24.38-16.983 36.966-.79 1.822-3.714 9.18-5.47 14.953-1.28 4.103-2.712 9.643-2.99 11.368-.343 1.938-1.296 4.855-1.705 4.784-7.148-1.43-36.356-7.254-44.594 1.246-2.734 2.808-6.308 7.216-10.28 16.57-7.872-4.652-12.618-7.1-18.9-6.856-8.13.354-18 5.703-22.25 13.6-.932 1.756-12.618 26.424-11.725 48.47 1.275 12.476 5.748 18.925 12.618 28.453l17.26-.02c.3-.154.692-.507.692-.72-.54-5.507-4.882-13.963-7.807-23.72-1.787-8.277 1.286-24.13 3.906-36.095.234-1.11.234-1.938 1.575-2.26 2.233-.597 3.638-.494 7.103-2.056 4.397-1.964 5.835-2.72 10.717-2.33.6.04 1.16.872.68 1.318-6.33 6.008-6.03 13.93-7.414 22.66-.48 4.984 5.85 29.146 12.29 43.223 4.545 0 8.555 0 13.845-.02.54 0 .916-.616.786-1.4-2.01-12.5-4.544-31.04-3.226-35.148 1.417-6.44 2.365-11.282 4.152-16.43 3.214 1.366 6.61 2.112 9.725 3.87 5.3 3.036 5.154 5.904 4.822 11.177-.503 8.82.39 10.366-.95 15.427-.86 3.32-.86 4.702-.985 7.945-.1 4.434-.153 9.762 1.04 12.945.29.642.36 1.61 1.542 1.61 4.288 0 6.865 0 11.866.022 1.106-15.42 1.956-14.066 3.204-21.57.054-.207-.158-10.03 1.52-14.82.926-2.53 2.79-6.023 4.756-7.813 4.032-3.673 7-4.016 13.866-1.295-.606 4.76-.312 9.506-1.02 14.224-1.346 8.407-4.418 15.89-6.772 24.047-.73 2.667-1.22 5.062-3.116 7.227h19.537M298.432 360.907c.604-.114 1.23-.74 1.384-1.35 1.607-6.034 2.37-10.997 2.98-17.103.136-1.692 1.03-3.662-.578-5.262-2.936 1.475-5.36 2.618-8.44 3.744-1.83.63-5.137.512-5.594 2.373-.883 3.302-1.373 4.777-2.054 8.07-1.733 3.22-3.83 5.805-4.866 7.536-.348.598-.446 2.024.62 1.99h16.548M13.15 327.457c-.484.495-1.285.93-1.36 1.524-1.19 10.862-5.874 17.56-9.563 24.967-1.182 2.085-3.013 4.615-1.09 6.96 8.505-.02 14.645.033 23.177 0 1.493-.02.96-10.203.96-10.235-.023-3.625-.246-7.418-.077-11.96-2.48-3.033-11.098-9.878-12.046-11.255" fill="#FFFFFE" mask="url(#f)"/></g><path d="M388.565 175.915c2.915-1.563.148-6.48-2.262-7.298-2.18-.77-3.97-2.632-5.738-4.814-1.115-1.416-2.96-3.125-4.804-3.608-7.4-1.953-10.508-2.35-15.225-1.416-1.438.308-4.925.83-3.88 2.18.564.71 1.68.798 2.826 2.447 1.237 1.78 4.152 2.003 6.233 3.028 2.8 1.368 3.14 7.027 3.827 9.697.29 1.243 1.565 1.427 3.26 1.563 2.4.18 8.956.217 10.61-.814 1.443-.965 3.645-.15 5.155-.965zm-101.5-29.84c1.363-.53 1.16-2.175.902-3.24-3.147-11.97-6.76-12.192-13.085-15.49-4.14-1.894-7.483-2.93-11.272-2.263-5.995 1.014-17.454 4.672-21.083 13.62-1.05 2.528-1.66 8.71 2.08 15.67 3.7 6.8 9.955 10.875 14.59 13.783 2.025 1.28 3.063-1.606 3.557-2.566.675-1.412 7.302-7.89 10.157-10.24 3.762-3.16 13.437-9.035 14.156-9.274zm2.56 141.192c-.9.57-1.917 1.21-1.615 3.148.116.564.385 1.9.6 2.47.158.454.235 2.1 1.487 4.383 4.6-1.525 6.16-2.67 9.548-3.977 1.263-.5 2.806-.66 3.964-1.36 1.663-.994 3.38-2.644 4.666-4.424-3.217-.944-6.298-1.573-9.866-1.42-3.273.178-6.53-.24-8.785 1.18zm88.755 3.17c1.543.412 3.547.927 5.11 1.465 3.565 1.128 2.79 1.573 4.614 2.284 3.343 1.275 7.1 2.306 10.476 3.082.087-1.123.164-2.458.44-3.56.652-2.43 2.003-3.738.625-6.74-.247-.59-2.5-.704-4.025-.53-2.432.298-6.007-.668-8.933-.185-.675.125-1.878.5-3.086.72-1.607.35-5.297 1.114-5.22 3.463zm60.994-132.847c2.41-9.056 3.344-20.685-1.147-27.788-2.723-3.917-5.557-4.417-13.117-6.19-6.2-1.434-13.92-.397-17.564 4.67-3.487 4.9-8.428 11.347-6.715 17.544 11.07 4.097 16.132 16.632 27.54 19.36 4.3 1.043 9.956-3.65 11.004-7.596zm-66.1 34.81c-4.915 1.41-8.516 5.16-8.956 7.195-.16.874.324 5.524.29 6.767-.075 2.566.556 5.073.825 7.586.258 2.338.192 4.715.686 7.032 1.62 7.103 2.552 14.228 2.552 21.564 4.656 3.598 6.93 3.56 9.52 6.143 2.812 2.8 4.635 6.37 5.942 10.33 7.028 1.966 13.655 6.383 19.37 10.892 1.093-.658 5.854-8.103 7.347-10.81.297-.483 1.533-2.605 1.835-3.066-5.02-4.27-12.41-5.204-17.888-8.454-.54-.32-2.63-1.558-3.196-2.095-3.315-3.413-4.386-10.684-10.448-11.395-.856-.13-1.95-.5-2.06-2.05-.317-3.528-2.343-16.345-2.612-18.928-.132-1.677-.335-2.94-.494-4.688-.033-.445.225-.635.587-.37 4.283 5.742 10.438 6.42 14.04 6.632 5.556.325 11.612-2.404 14.198-7.396.87-.766 1.237-4.184 3.67-5.096 3.002-1.128 6.456-2.854 8.707-4.916.653-.635 2.185-3.342 2.575-4.232.297-.706-.176-1.33-.73-1.39-5.513-.57-10.904-.7-16.313-.504-3.882.152-14.155.027-15.627-.065-2.51-.168-5.584-.022-7.967.217-.97.097-4.826.814-5.853 1.096zm-104.41.412c-1.114.093-1.037 1.905-.63 2.372 2.723 3.24 6.292 5.73 10.272 7.694 2.586 1.26 2.63 4.802 4.206 6.674 3.014 3.68 7.786 6.696 14.188 5.98 4.255-.488 5.11-.765 7.818-2.583 1.274-.89 1.52.178 1.67 1.193.603 3.777.84 8.156.603 11.84-.108 2.236.715 14.743-5.533 15.807-4.667 1.606-11.613 5.914-15.017 10.614-2.668 3.738-5.007 13.202-.675 15.6 3.563 1.96 6.66-3.88 12.754-5.383 4.32-1.08 4.128-4.584 6.912-8.68 2.685-3.88 9.89-5.932 10.47-8.455.418-1.693-.043-3.56.06-5.29 1.11-15.183 1.88-17.272 3.938-27.56.236-1.335.675-10.994.686-12.107.033-3.885-3.344-7.385-7.215-8.2-1.19-.26-4.506-1.296-9.48-.492-3.872.596-8.835.358-12.58.152-7.417-.33-15.088.265-22.445.824zm52.216-15.562c3.7-5.253 6.413-10.223 10.553-15.042.73-.82.555-1.856-.61-2.046-3.607-.59-6.692-.884-9.806.033-3.74 1.07-8.406 3.75-13.616 7.483-4.996 3.608-8.416 6.414-8.416 11.13 1.125-.044 7.374-.13 9.284 0 7.056.477 9.73 2.625 12.612-1.558zm-58.7-67.568c4.673-.43 10.85 3.207 14.518 4.704 4.085 1.634 9.542 4.124 14.456 7.776 6.155 4.564 9.224 11.124 12.354 17.68 4.87-.43 8.933-.5 14.358.238 7.774.976 15.088 3.207 22.297 5.876.708.266 2.905 1.455 3.377 1.65 11.15-7.765 25.405-12.106 39.164-10.435 1.373.094 1.67.018 1.713-1.453.63-5.665 6.007-13.35 8.302-16.317 4.76-6.262 9.35-8.698 16.108-10.033 8.01-1.574 20.332 2.095 31.89 7.526 8.213 3.902 11.678 13.924 12.353 15.682 2.576 6.523 2.104 15.422 1.055 25.34-.56 5.286-1.504 11.336-1.696 12.302-1.286 7.494-9 10.864-14.08 12.627-.548.19-2.503.62-2.777 1.617-2.18 7.696-.626 18.2-1.878 26.53-.774 4.895-2.927 9.36-3.498 14.315 3.904-1.004 6.81-4.84 11.42-3.766-3.376 19.794-8.543 17.303-13.1 26.93-2.888 6.13-4.903 13.8-9.674 19.567-1.548 1.71-4.43 4.156-9.642 7.005-2.036 1.15.452 3.473 1.407 3.712 6.83 1.535 11.344 2.523 17.993 3.71 2.372.408 15.83 2.774 22.582 4.803 7.435 2.193 14.726 5.628 20.925 8.607 1.91.938-.538 6.028-2.41 11.13-8.71-4.14-15.06-7.04-24.29-9.59-6.853-2.1-16.934-3.88-20.217-4.655-4.398-.983-9.543-2.02-13.908-2.996-.335 3.027-2.284 10.77-2.212 11.856 1.537.635 2.597.993 3.09 1.172 5.2 1.747 10.082 4.184 15.122 6.343 3.816 1.6 29.21 13.805 37.835 18.873-.785 1.818-1.28 4.053-1.718 6.088-.375 2.317-1.275 4.303-2.68 4.097-1.845-.298-3.07-.716-4.69-1.644-5.177-2.882-21.512-11.966-25.223-14.1-10.4-5.533-14.26-7.476-25.625-11.68-3.113 3.683-4.99 8.16-9.312 10.748-2.816 1.715-14.067-8.047-21.105-11.25-5.134-2.343-14.155-5.143-20.145-5.886-2.092-.27-2.438-2.838-3.092-5.334-1.202-4.623-2.23-10.033-.89-10.706 7.43-3.712 11.07-10.457 11.4-14.722.13-1.486.845-2.284 2.036-1.915 2.565.75 4.805 3.158 8.335.575 2.915-2.176 4.04-5.784 3.535-9.046-.544-3.418-2.624-6.028-5.705-7.065-17.06-5.79-34.722-5.26-51.42.976-4.93 1.84-4.468 7.75-3.117 12.35 1.833 6.083 8.993 3.587 12.75 1.037 1.926-1.32-.56 4.238 2.058 8.866 3.915 6.94 10.262 8.33 10.306 9.756.182 4.824-.538 5.252-.977 8.405-.544 3.566-.495 6.73-4.59 7.457-9.467 1.687-18.153 5.1-27.026 8.427-5.073 1.92-9.723 6.87-14.55 6.907-4.096.067-6.54-6.58-9.652-7.785-3.086-1.15-3.3-1.73-8.867.358-17.224 6.425-39.895 17.435-55.85 27.077-3.476-3.305-2.844-7.9-3.783-11.992 18.086-11.51 37.616-20.38 57.272-29.34 1.64-.754.483-6.842-.78-8.546-.72-.966-11.382-.125-32.636 5.16-14.517 3.56-29.188 10.288-30.055 10.646-.785.33-1.73-1.687-1.867-2.707-.45-2.99-3.036-7.075-.675-8.29 10.317-5.438 21.49-8.873 32.472-11.743 11.13-2.898 22.028-5.215 33.168-6.902-.18-.798-.516-3.734-.785-4.4-4.255-10.61-13.78-18.71-21.748-27.29-1.757-1.84-3.333-4.178-3.7-6.614-.577-3.56-3.185-9.148-1.95-10.304 1.543-1.48 2.78.662 6.37 1.655.494.126 2.926.462 3.612.462-.79-6.055-1.983-11.905-2.774-18.015-.933-7.18-.505-18.52.714-27.24.214-1.633.44-2.225-1.092-4.124-1.18-1.48-8.374-5.117-9.318-5.312-3.788-.683-5.254-1.676-7.165-5.31-3.783-7.19-9.69-13.562-9.45-21.696.22-7.965 3.328-15.698 6.512-23.175 2.5-5.943 9.768-6.47 15.11-9.633 4.794-2.843 10.487-5.16 15.423-5.605z" fill="#FFFFFE"/></g></g></svg>